<?xml version="1.0" encoding="utf-8"?>
<svg version="1.1" xmlns:xlink="http://www.w3.org/1999/xlink" width="72px" height="10px" viewBox="1196 6042  72 10" xmlns="http://www.w3.org/2000/svg">
  <g transform="matrix(0.945518575599316 -0.325568154457177 0.325568154457157 0.94551857559936 -1901.58951514078 730.54913964191 )">
    <path d="M 1223.61161814566 6041.32568679528  C 1220.39710288283 6040.40627512327  1217.15614713255 6039.58195596778  1213.89298542298 6038.85380635763  L 1213.67519925701 6039.8298028668  C 1216.91915341857 6040.55366645933  1220.14103232902 6041.3731335262  1223.33662638544 6042.2871333782  L 1223.61161814566 6041.32568679528  Z M 1235.99749811213 6045.38841071963  C 1232.8629369927 6044.22524573293  1229.69472238977 6043.15486613908  1226.49699379017 6042.17867046146  L 1226.20501819766 6043.13509623138  C 1229.38392440012 6044.10554584827  1232.53349033052 6045.16962499818  1235.64960086779 6046.32594338966  L 1235.99749811213 6045.38841071963  Z M 1248.03542718805 6050.38881188279  C 1244.99927363931 6048.98874123239  1241.92245173185 6047.67860261563  1238.80898154184 6046.46010781733  L 1238.44453540786 6047.39133228836  C 1241.53967916068 6048.60265481037  1244.59839034919 6049.90508171908  1247.61667256017 6051.29691130556  L 1248.03542718805 6050.38881188279  Z M 1259.65453706357 6056.29745249886  C 1256.73466517906 6054.66871851945  1253.76734947873 6053.126533777  1250.75646696145 6051.67291324028  L 1250.32169581133 6052.57345421493  C 1253.31485574062 6054.01851848361  1256.26470529496 6055.55162565341  1259.16739029619 6057.17077261601  L 1259.65453706357 6056.29745249886  Z M 1270.75061663836 6063.14375109232  C 1268.13287001141 6061.37836864113  1265.46641759862 6059.68630553423  1262.75436656748 6058.06953350132  C 1262.59277193684 6057.97488778272  1262.43102092284 6057.8805093208  1262.26911418865 6057.78639850249  L 1261.76657755704 6058.65095441964  C 1261.92641572471 6058.74386285135  1262.08610122814 6058.83703367641  1262.24563342132 6058.9304665179  C 1264.94057547871 6060.53712286561  1267.59022308928 6062.21856466395  1270.19149120532 6063.97283417026  L 1270.75061663836 6063.14375109232  Z M 1281.2702967595 6070.84128825548  C 1278.64981470318 6068.76487307779  1275.96860808813 6066.76626673019  1273.2301800923 6064.84808052721  L 1272.65645950942 6065.66713162011  C 1275.37876863284 6067.57402703922  1278.04419319069 6069.56086923572  1280.64925062529 6071.62506226576  L 1281.2702967595 6070.84128825548  Z M 1291.1688349803 6079.32272028792  C 1288.71526695648 6077.05150251983  1286.19518744948 6074.85320874424  1283.61188911383 6072.73071118084  L 1282.97705995213 6073.50336371299  C 1285.54515253604 6075.61336787966  1288.05039840852 6077.79872210856  1290.48952429621 6080.05657108643  L 1291.1688349803 6079.32272028792  Z M 1300.3879577664 6088.53811627963  C 1298.11574813819 6086.08546677285  1295.77163166115 6083.70042711126  1293.35867108216 6081.38611351067  L 1292.66647063476 6082.10781881107  C 1295.06522810023 6084.40850995173  1297.39554669234 6086.77951084727  1299.65438169206 6089.21772362447  L 1300.3879577664 6088.53811627963  Z M 1308.87339135976 6098.43322441254  C 1306.79591681804 6095.8135821228  1304.64156338354 6093.25583750607  1302.41314586487 6090.76333242881  L 1301.66764917454 6091.42984175711  C 1303.88294983285 6093.90767550784  1306.0246223613 6096.45036478656  1308.08986851977 6099.0545873976  L 1308.87339135976 6098.43322441254  Z M 1210.95070401488 6038.22455771019  C 1207.67515873272 6037.55431200738  1204.38054161661 6036.98090612708  1201.07115730689 6036.50508926292  L 1200.92884269311 6037.49491073708  C 1204.2187473804 6037.96792685887  1207.49397179637 6038.53795757055  1210.75023663862 6039.2042580884  L 1210.95070401488 6038.22455771019  Z M 1311.39919508413 6101.69892976765  C 1311.17444661282 6101.40093124347  1310.94871669253 6101.10367419066  1310.72200900067 6100.80716345187  L 1309.92760486968 6101.41455301111  C 1310.15297811996 6101.70931843523  1310.37737935383 6102.00482578021  1310.60080491587 6102.30107023235  L 1311.39919508413 6101.69892976765  Z " fill-rule="nonzero" fill="#d9d9d9" stroke="none" />
  </g>
</svg>