<?xml version="1.0" encoding="utf-8"?>
<svg version="1.1" xmlns:xlink="http://www.w3.org/1999/xlink" width="72px" height="8px" viewBox="1196 6024  72 8" xmlns="http://www.w3.org/2000/svg">
  <g transform="matrix(0.945518575599324 0.325568154457172 -0.325568154457141 0.945518575599343 2029.64594992928 -72.6859400040757 )">
    <path d="M 1223.37022790764 6031.8581211665  C 1220.16904171055 6032.75219992964  1216.94206058803 6033.55120797063  1213.69353438184 6034.25409301873  L 1213.9050111767 6035.23147603743  C 1217.17284867862 6034.52441259575  1220.41901301926 6033.72065474529  1223.6392290931 6032.82126101212  L 1223.37022790764 6031.8581211665  Z M 1235.70733269305 6027.89421348059  C 1232.58446604121 6029.03205080553  1229.4285629291 6030.07708504495  1226.24377959074 6031.02793991868  L 1226.52986298605 6031.98614464155  C 1229.73357869219 6031.02963728467  1232.90824248974 6029.97839070033  1236.04967343739 6028.8337893502  L 1235.70733269305 6027.89421348059  Z M 1247.70271183541 6022.99241810955  C 1244.67669566922 6024.36726212437  1241.61059754464 6025.65212137936  1238.50845542514 6026.84530375166  L 1238.8674478158 6027.778644238  C 1241.98803103138 6026.57836883453  1245.07235598371 6025.28587156295  1248.11636070513 6023.90285460518  L 1247.70271183541 6022.99241810955  Z M 1259.28518533233 6017.18182207113  C 1256.37397588604 6018.78551451764  1253.41587682768 6020.30257449524  1250.41478388904 6021.73100407935  L 1250.84455503149 6022.63394193165  C 1253.86348836593 6021.19702085805  1256.83917223723 6019.67094251582  1259.76768775495 6018.05771670645  L 1259.28518533233 6017.18182207113  Z M 1270.34305295983 6010.43506232624  C 1267.66129900004 6012.22414898188  1264.92866987734 6013.93577596133  1262.14855131016 6015.56782256444  C 1262.06311528098 6015.61708650767  1261.97763594542 6015.66627530845  1261.8921134025 6015.7153889098  L 1262.39011305546 6016.58256613831  C 1262.47726957341 6016.53251418322  1262.56438148253 6016.48238458922  1262.65144867852 6016.43217741631  C 1265.449251407 6014.7898360326  1268.19924573899 6013.06737612363  1270.89802171315 6011.26693351989  L 1270.34305295983 6010.43506232624  Z M 1280.83767863507 6002.83377621367  C 1278.22297729503 6004.88567942911  1275.54803748455 6006.85963941476  1272.81638202279 6008.75305652184  L 1273.38605380941 6009.57492880847  C 1276.13394796007 6007.67025603179  1278.82478930573 6005.68456157867  1281.45503408535 6003.6204605519  L 1280.83767863507 6002.83377621367  Z M 1290.71605809445 5994.44721923926  C 1288.26705973757 5996.69430111385  1285.75200195709 5998.86830786994  1283.17419701212 6000.96637640286  L 1283.80544220639 6001.74195973475  C 1286.39857125543 5999.63141895462  1288.9285801311 5997.44448852647  1291.39213688417 5995.18404857505  L 1290.71605809445 5994.44721923926  Z M 1299.91957350978 5985.32515682836  C 1297.65081037442 5987.75408328644  1295.31055885574 5990.11523636153  1292.90190099801 5992.40550648262  L 1293.59097382135 5993.13019858561  C 1296.0139502658 5990.82631364943  1298.36811372062 5988.45112438612  1300.65036381994 5986.00775885192  L 1299.91957350978 5985.32515682836  Z M 1308.39361166363 5975.5217188602  C 1306.31854648102 5978.11807676909  1304.166988164 5980.65236519449  1301.9417702533 5983.1212465511  L 1302.68458178073 5983.79074713714  C 1304.92302779502 5981.30718918722  1307.08737633637 5978.75783534749  1309.17477701972 5976.14604304398  L 1308.39361166363 5975.5217188602  Z M 1210.76460526508 6034.86061952988  C 1207.50409520752 6035.50563431089  1204.22518482525 6036.05387487818  1200.93219234935 6036.50461921463  L 1201.06780765065 6037.49538078537  C 1204.38037575792 6037.04195693932  1207.67877805871 6036.49045728311  1210.95867065159 6035.84160812602  L 1210.76460526508 6034.86061952988  Z M 1310.60285076425 5972.69623613687  C 1310.48223361623 5972.85393431617  1310.36133738171 5973.01141883725  1310.24016262897 5973.16868895981  L 1311.03230505266 5973.77902524466  C 1311.15420014469 5973.62082020912  1311.2758150632 5973.46239950005  1311.39714923575 5973.30376386313  L 1310.60285076425 5972.69623613687  Z " fill-rule="nonzero" fill="#d9d9d9" stroke="none" />
  </g>
</svg>