<?xml version="1.0" encoding="utf-8"?>
<svg version="1.1" xmlns:xlink="http://www.w3.org/1999/xlink" width="72px" height="10px" viewBox="1128 2332  72 10" xmlns="http://www.w3.org/2000/svg">
  <g transform="matrix(0.945518575599313 -0.32556815445717 0.325568154457179 0.945518575599355 -697.436398964027 506.284420612453 )">
    <path d="M 1154.61161814566 2331.32568679528  C 1151.39710288282 2330.40627512326  1148.15614713256 2329.58195596779  1144.89298542298 2328.85380635763  L 1144.67519925701 2329.8298028668  C 1147.91915341857 2330.55366645933  1151.14103232902 2331.3731335262  1154.33662638545 2332.2871333782  L 1154.61161814566 2331.32568679528  Z M 1166.99749811213 2335.38841071963  C 1163.86293699271 2334.22524573294  1160.69472238977 2333.15486613908  1157.49699379017 2332.17867046146  L 1157.20501819766 2333.13509623138  C 1160.38392440011 2334.10554584827  1163.53349033053 2335.16962499818  1166.64960086779 2336.32594338966  L 1166.99749811213 2335.38841071963  Z M 1179.03542718805 2340.38881188279  C 1175.9992736393 2338.98874123239  1172.92245173186 2337.67860261564  1169.80898154184 2336.46010781733  L 1169.44453540786 2337.39133228836  C 1172.53967916067 2338.60265481037  1175.5983903492 2339.90508171909  1178.61667256017 2341.29691130556  L 1179.03542718805 2340.38881188279  Z M 1190.65453706357 2346.29745249886  C 1187.73466517905 2344.66871851945  1184.76734947873 2343.126533777  1181.75646696145 2341.67291324028  L 1181.32169581133 2342.57345421493  C 1184.31485574062 2344.01851848361  1187.26470529495 2345.5516256534  1190.16739029619 2347.17077261601  L 1190.65453706357 2346.29745249886  Z M 1201.75061663836 2353.14375109232  C 1199.13287001139 2351.37836864112  1196.46641759856 2349.68630553418  1193.7543665674 2348.06953350127  C 1193.59277193683 2347.97488778272  1193.43102092277 2347.88050932075  1193.26911418865 2347.78639850249  L 1192.76657755704 2348.65095441964  C 1192.92641572471 2348.74386285135  1193.08610122806 2348.83703367636  1193.24563342123 2348.93046651785  C 1195.94057547865 2350.53712286558  1198.59022308925 2352.21856466394  1201.19149120532 2353.97283417026  L 1201.75061663836 2353.14375109232  Z M 1212.2702967595 2360.84128825548  C 1209.64981470318 2358.76487307778  1206.96860808813 2356.7662667302  1204.2301800923 2354.84808052721  L 1203.65645950942 2355.66713162011  C 1206.37876863285 2357.57402703922  1209.04419319068 2359.56086923572  1211.64925062529 2361.62506226576  L 1212.2702967595 2360.84128825548  Z M 1222.1688349803 2369.32272028792  C 1219.71526695647 2367.05150251982  1217.19518744949 2364.85320874425  1214.61188911383 2362.73071118084  L 1213.97705995213 2363.50336371299  C 1216.54515253604 2365.61336787966  1219.05039840851 2367.79872210856  1221.48952429621 2370.05657108643  L 1222.1688349803 2369.32272028792  Z M 1231.3879577664 2378.53811627963  C 1229.11574813819 2376.08546677285  1226.77163166115 2373.70042711127  1224.35867108216 2371.38611351067  L 1223.66647063476 2372.10781881107  C 1226.06522810024 2374.40850995174  1228.39554669233 2376.77951084727  1230.65438169206 2379.21772362447  L 1231.3879577664 2378.53811627963  Z M 1239.87339135976 2388.43322441254  C 1237.79591681804 2385.81358212281  1235.64156338353 2383.25583750606  1233.41314586487 2380.76333242881  L 1232.66764917454 2381.42984175711  C 1234.88294983285 2383.90767550784  1237.0246223613 2386.45036478656  1239.08986851977 2389.0545873976  L 1239.87339135976 2388.43322441254  Z M 1141.95070401488 2328.22455771019  C 1138.67515873271 2327.55431200737  1135.38054161662 2326.98090612708  1132.07115730689 2326.50508926292  L 1131.92884269311 2327.49491073708  C 1135.21874738039 2327.96792685887  1138.49397179637 2328.53795757055  1141.75023663862 2329.2042580884  L 1141.95070401488 2328.22455771019  Z M 1242.39919508413 2391.69892976765  C 1242.1744466128 2391.40093124345  1241.94871669255 2391.10367419069  1241.72200900067 2390.80716345187  L 1240.92760486968 2391.41455301112  C 1241.15297811991 2391.70931843516  1241.37737935388 2392.00482578028  1241.60080491587 2392.30107023235  L 1242.39919508413 2391.69892976765  Z " fill-rule="nonzero" fill="#d9d9d9" stroke="none" />
  </g>
</svg>