<?xml version="1.0" encoding="utf-8"?>
<svg version="1.1" xmlns:xlink="http://www.w3.org/1999/xlink" width="70px" height="8px" viewBox="1128 2314  70 8" xmlns="http://www.w3.org/2000/svg">
  <g transform="matrix(0.945518575599318 0.325568154457124 -0.325568154457156 0.945518575599227 818.028878609681 -252.347821872642 )">
    <path d="M 1154.37022790764 2321.8581211665  C 1151.16904171054 2322.75219992965  1147.94206058803 2323.55120797063  1144.69353438184 2324.25409301873  L 1144.9050111767 2325.23147603743  C 1148.17284867862 2324.52441259575  1151.41901301926 2323.72065474528  1154.6392290931 2322.82126101212  L 1154.37022790764 2321.8581211665  Z M 1166.70733269305 2317.89421348059  C 1163.58446604121 2319.03205080553  1160.4285629291 2320.07708504495  1157.24377959074 2321.02793991868  L 1157.52986298605 2321.98614464155  C 1160.73357869219 2321.02963728467  1163.90824248974 2319.97839070033  1167.04967343739 2318.8337893502  L 1166.70733269305 2317.89421348059  Z M 1178.70271183541 2312.99241810955  C 1175.67669566921 2314.36726212437  1172.61059754464 2315.65212137936  1169.50845542514 2316.84530375166  L 1169.8674478158 2317.778644238  C 1172.98803103138 2316.57836883453  1176.0723559837 2315.28587156296  1179.11636070513 2313.90285460518  L 1178.70271183541 2312.99241810955  Z M 1190.28518533233 2307.18182207114  C 1187.37397588604 2308.78551451764  1184.41587682768 2310.30257449524  1181.41478388904 2311.73100407935  L 1181.84455503149 2312.63394193165  C 1184.86348836593 2311.19702085805  1187.83917223723 2309.67094251582  1190.76768775495 2308.05771670645  L 1190.28518533233 2307.18182207114  Z M 1201.34305295983 2300.43506232623  C 1198.66129900005 2302.22414898187  1195.92866987735 2303.93577596133  1193.14855131019 2305.56782256442  C 1193.06311528099 2305.61708650767  1192.97763594544 2305.66627530844  1192.8921134025 2305.7153889098  L 1193.39011305546 2306.58256613831  C 1193.47726957343 2306.53251418321  1193.56438148254 2306.48238458921  1193.65144867855 2306.43217741629  C 1196.44925140702 2304.78983603258  1199.19924573899 2303.06737612363  1201.89802171315 2301.26693351989  L 1201.34305295983 2300.43506232623  Z M 1211.83767863507 2292.83377621367  C 1209.22297729503 2294.88567942911  1206.54803748455 2296.85963941476  1203.81638202279 2298.75305652184  L 1204.38605380941 2299.57492880847  C 1207.13394796007 2297.67025603179  1209.82478930573 2295.68456157867  1212.45503408535 2293.6204605519  L 1211.83767863507 2292.83377621367  Z M 1221.71605809445 2284.44721923926  C 1219.26705973757 2286.69430111385  1216.75200195709 2288.86830786994  1214.17419701212 2290.96637640286  L 1214.80544220639 2291.74195973475  C 1217.39857125542 2289.63141895462  1219.92858013111 2287.44448852647  1222.39213688417 2285.18404857505  L 1221.71605809445 2284.44721923926  Z M 1230.91957350978 2275.32515682836  C 1228.65081037442 2277.75408328643  1226.31055885574 2280.11523636153  1223.90190099801 2282.40550648262  L 1224.59097382135 2283.13019858561  C 1227.0139502658 2280.82631364943  1229.36811372062 2278.45112438611  1231.65036381994 2276.00775885192  L 1230.91957350978 2275.32515682836  Z M 1239.39361166363 2265.5217188602  C 1237.31854648102 2268.11807676909  1235.166988164 2270.65236519449  1232.9417702533 2273.1212465511  L 1233.68458178073 2273.79074713714  C 1235.92302779501 2271.30718918722  1238.08737633637 2268.75783534749  1240.17477701972 2266.14604304398  L 1239.39361166363 2265.5217188602  Z M 1141.76460526508 2324.86061952988  C 1138.50409520753 2325.50563431089  1135.22518482525 2326.05387487819  1131.93219234935 2326.50461921463  L 1132.06780765065 2327.49538078537  C 1135.38037575792 2327.04195693932  1138.6787780587 2326.49045728311  1141.95867065159 2325.84160812602  L 1141.76460526508 2324.86061952988  Z M 1241.60285076425 2262.69623613687  C 1241.48223361625 2262.85393431615  1241.36133738169 2263.01141883728  1241.24016262897 2263.16868895981  L 1242.03230505266 2263.77902524466  C 1242.15420014477 2263.620820209  1242.27581506311 2263.46239950016  1242.39714923575 2263.30376386313  L 1241.60285076425 2262.69623613687  Z " fill-rule="nonzero" fill="#d9d9d9" stroke="none" />
  </g>
</svg>