<?xml version="1.0" encoding="utf-8"?>
<svg version="1.1" xmlns:xlink="http://www.w3.org/1999/xlink" width="70px" height="8px" viewBox="1128 3238  70 8" xmlns="http://www.w3.org/2000/svg">
  <g transform="matrix(0.945518575599298 0.325568154457162 -0.325568154457188 0.945518575599327 1118.85385332822 -202.006985726698 )">
    <path d="M 1154.37022790764 3245.8581211665  C 1151.16904171054 3246.75219992965  1147.94206058803 3247.55120797063  1144.69353438184 3248.25409301873  L 1144.9050111767 3249.23147603743  C 1148.17284867862 3248.52441259575  1151.41901301926 3247.72065474528  1154.6392290931 3246.82126101212  L 1154.37022790764 3245.8581211665  Z M 1166.70733269305 3241.89421348059  C 1163.58446604121 3243.03205080553  1160.4285629291 3244.07708504495  1157.24377959074 3245.02793991868  L 1157.52986298605 3245.98614464155  C 1160.73357869219 3245.02963728467  1163.90824248974 3243.97839070033  1167.04967343739 3242.8337893502  L 1166.70733269305 3241.89421348059  Z M 1178.70271183541 3236.99241810955  C 1175.67669566921 3238.36726212437  1172.61059754464 3239.65212137936  1169.50845542514 3240.84530375166  L 1169.8674478158 3241.778644238  C 1172.98803103138 3240.57836883453  1176.0723559837 3239.28587156296  1179.11636070513 3237.90285460518  L 1178.70271183541 3236.99241810955  Z M 1190.28518533233 3231.18182207114  C 1187.37397588604 3232.78551451764  1184.41587682768 3234.30257449524  1181.41478388904 3235.73100407935  L 1181.84455503149 3236.63394193165  C 1184.86348836593 3235.19702085805  1187.83917223723 3233.67094251582  1190.76768775495 3232.05771670645  L 1190.28518533233 3231.18182207114  Z M 1201.34305295983 3224.43506232623  C 1198.66129900005 3226.22414898187  1195.92866987735 3227.93577596133  1193.14855131019 3229.56782256442  C 1193.06311528099 3229.61708650767  1192.97763594544 3229.66627530844  1192.8921134025 3229.7153889098  L 1193.39011305546 3230.58256613831  C 1193.47726957343 3230.53251418321  1193.56438148254 3230.48238458921  1193.65144867855 3230.43217741629  C 1196.44925140702 3228.78983603258  1199.19924573899 3227.06737612363  1201.89802171315 3225.26693351989  L 1201.34305295983 3224.43506232623  Z M 1211.83767863507 3216.83377621367  C 1209.22297729503 3218.88567942911  1206.54803748455 3220.85963941476  1203.81638202279 3222.75305652184  L 1204.38605380941 3223.57492880847  C 1207.13394796007 3221.67025603179  1209.82478930573 3219.68456157867  1212.45503408535 3217.6204605519  L 1211.83767863507 3216.83377621367  Z M 1221.71605809445 3208.44721923926  C 1219.26705973757 3210.69430111385  1216.75200195709 3212.86830786994  1214.17419701212 3214.96637640286  L 1214.80544220639 3215.74195973475  C 1217.39857125542 3213.63141895462  1219.92858013111 3211.44448852647  1222.39213688417 3209.18404857505  L 1221.71605809445 3208.44721923926  Z M 1230.91957350978 3199.32515682836  C 1228.65081037442 3201.75408328643  1226.31055885574 3204.11523636153  1223.90190099801 3206.40550648262  L 1224.59097382135 3207.13019858561  C 1227.0139502658 3204.82631364943  1229.36811372062 3202.45112438611  1231.65036381994 3200.00775885192  L 1230.91957350978 3199.32515682836  Z M 1239.39361166363 3189.5217188602  C 1237.31854648102 3192.11807676909  1235.166988164 3194.65236519449  1232.9417702533 3197.1212465511  L 1233.68458178073 3197.79074713714  C 1235.92302779501 3195.30718918722  1238.08737633637 3192.75783534749  1240.17477701972 3190.14604304398  L 1239.39361166363 3189.5217188602  Z M 1141.76460526508 3248.86061952988  C 1138.50409520753 3249.50563431089  1135.22518482525 3250.05387487819  1131.93219234935 3250.50461921463  L 1132.06780765065 3251.49538078537  C 1135.38037575792 3251.04195693932  1138.6787780587 3250.49045728311  1141.95867065159 3249.84160812602  L 1141.76460526508 3248.86061952988  Z M 1241.60285076425 3186.69623613687  C 1241.48223361625 3186.85393431615  1241.36133738169 3187.01141883728  1241.24016262897 3187.16868895981  L 1242.03230505266 3187.77902524466  C 1242.15420014477 3187.620820209  1242.27581506311 3187.46239950016  1242.39714923575 3187.30376386313  L 1241.60285076425 3186.69623613687  Z " fill-rule="nonzero" fill="#d9d9d9" stroke="none" />
  </g>
</svg>