<?xml version="1.0" encoding="utf-8"?>
<svg version="1.1" xmlns:xlink="http://www.w3.org/1999/xlink" width="70px" height="10px" viewBox="1184 3288  70 10" xmlns="http://www.w3.org/2000/svg">
  <g transform="matrix(0.743144825477379 -0.66913060635889 0.669130606358877 0.743144825477438 -1890.34062899671 1661.49429885428 )">
    <path d="M 1154.61161814566 3255.32568679528  C 1151.39710288282 3254.40627512326  1148.15614713256 3253.58195596779  1144.89298542298 3252.85380635763  L 1144.67519925701 3253.8298028668  C 1147.91915341857 3254.55366645933  1151.14103232902 3255.3731335262  1154.33662638545 3256.2871333782  L 1154.61161814566 3255.32568679528  Z M 1166.99749811213 3259.38841071963  C 1163.86293699271 3258.22524573294  1160.69472238977 3257.15486613908  1157.49699379017 3256.17867046146  L 1157.20501819766 3257.13509623138  C 1160.38392440011 3258.10554584827  1163.53349033053 3259.16962499818  1166.64960086779 3260.32594338966  L 1166.99749811213 3259.38841071963  Z M 1179.03542718805 3264.38881188279  C 1175.9992736393 3262.98874123239  1172.92245173186 3261.67860261564  1169.80898154184 3260.46010781733  L 1169.44453540786 3261.39133228836  C 1172.53967916067 3262.60265481037  1175.5983903492 3263.90508171909  1178.61667256017 3265.29691130556  L 1179.03542718805 3264.38881188279  Z M 1190.65453706357 3270.29745249886  C 1187.73466517905 3268.66871851945  1184.76734947873 3267.126533777  1181.75646696145 3265.67291324028  L 1181.32169581133 3266.57345421493  C 1184.31485574062 3268.01851848361  1187.26470529495 3269.5516256534  1190.16739029619 3271.17077261601  L 1190.65453706357 3270.29745249886  Z M 1201.75061663836 3277.14375109232  C 1199.13287001139 3275.37836864112  1196.46641759856 3273.68630553418  1193.7543665674 3272.06953350127  C 1193.59277193683 3271.97488778272  1193.43102092277 3271.88050932075  1193.26911418865 3271.78639850249  L 1192.76657755704 3272.65095441964  C 1192.92641572471 3272.74386285135  1193.08610122806 3272.83703367636  1193.24563342123 3272.93046651785  C 1195.94057547865 3274.53712286558  1198.59022308925 3276.21856466394  1201.19149120532 3277.97283417026  L 1201.75061663836 3277.14375109232  Z M 1212.2702967595 3284.84128825548  C 1209.64981470318 3282.76487307778  1206.96860808813 3280.7662667302  1204.2301800923 3278.84808052721  L 1203.65645950942 3279.66713162011  C 1206.37876863285 3281.57402703922  1209.04419319068 3283.56086923572  1211.64925062529 3285.62506226576  L 1212.2702967595 3284.84128825548  Z M 1222.1688349803 3293.32272028792  C 1219.71526695647 3291.05150251982  1217.19518744949 3288.85320874425  1214.61188911383 3286.73071118084  L 1213.97705995213 3287.50336371299  C 1216.54515253604 3289.61336787966  1219.05039840851 3291.79872210856  1221.48952429621 3294.05657108643  L 1222.1688349803 3293.32272028792  Z M 1231.3879577664 3302.53811627963  C 1229.11574813819 3300.08546677285  1226.77163166115 3297.70042711127  1224.35867108216 3295.38611351067  L 1223.66647063476 3296.10781881107  C 1226.06522810024 3298.40850995174  1228.39554669233 3300.77951084727  1230.65438169206 3303.21772362447  L 1231.3879577664 3302.53811627963  Z M 1239.87339135976 3312.43322441254  C 1237.79591681804 3309.81358212281  1235.64156338353 3307.25583750606  1233.41314586487 3304.76333242881  L 1232.66764917454 3305.42984175711  C 1234.88294983285 3307.90767550784  1237.0246223613 3310.45036478656  1239.08986851977 3313.0545873976  L 1239.87339135976 3312.43322441254  Z M 1141.95070401488 3252.22455771019  C 1138.67515873271 3251.55431200737  1135.38054161662 3250.98090612708  1132.07115730689 3250.50508926292  L 1131.92884269311 3251.49491073708  C 1135.21874738039 3251.96792685887  1138.49397179637 3252.53795757055  1141.75023663862 3253.2042580884  L 1141.95070401488 3252.22455771019  Z M 1242.39919508413 3315.69892976765  C 1242.1744466128 3315.40093124345  1241.94871669255 3315.10367419069  1241.72200900067 3314.80716345187  L 1240.92760486968 3315.41455301112  C 1241.15297811991 3315.70931843516  1241.37737935388 3316.00482578028  1241.60080491587 3316.30107023235  L 1242.39919508413 3315.69892976765  Z " fill-rule="nonzero" fill="#d9d9d9" stroke="none" />
  </g>
</svg>