<?xml version="1.0" encoding="utf-8"?>
<svg version="1.1" xmlns:xlink="http://www.w3.org/1999/xlink" width="72px" height="10px" viewBox="1160 5160  72 10" xmlns="http://www.w3.org/2000/svg">
  <g transform="matrix(0.743144825477441 0.669130606358873 -0.669130606358805 0.743144825477403 3763.25837057221 526.376771204002 )">
    <path d="M 1132.37022790764 5200.8581211665  C 1129.16904171055 5201.75219992964  1125.94206058803 5202.55120797063  1122.69353438184 5203.25409301873  L 1122.9050111767 5204.23147603743  C 1126.17284867862 5203.52441259575  1129.41901301926 5202.72065474529  1132.6392290931 5201.82126101212  L 1132.37022790764 5200.8581211665  Z M 1144.70733269305 5196.89421348059  C 1141.58446604121 5198.03205080553  1138.4285629291 5199.07708504495  1135.24377959074 5200.02793991868  L 1135.52986298605 5200.98614464155  C 1138.73357869219 5200.02963728467  1141.90824248974 5198.97839070033  1145.04967343739 5197.8337893502  L 1144.70733269305 5196.89421348059  Z M 1156.70271183541 5191.99241810955  C 1153.67669566922 5193.36726212437  1150.61059754464 5194.65212137936  1147.50845542514 5195.84530375166  L 1147.8674478158 5196.778644238  C 1150.98803103138 5195.57836883453  1154.07235598371 5194.28587156295  1157.11636070513 5192.90285460518  L 1156.70271183541 5191.99241810955  Z M 1168.28518533233 5186.18182207113  C 1165.37397588604 5187.78551451764  1162.41587682768 5189.30257449524  1159.41478388904 5190.73100407935  L 1159.84455503149 5191.63394193165  C 1162.86348836593 5190.19702085805  1165.83917223723 5188.67094251582  1168.76768775495 5187.05771670645  L 1168.28518533233 5186.18182207113  Z M 1179.34305295983 5179.43506232624  C 1176.66129900004 5181.22414898188  1173.92866987734 5182.93577596133  1171.14855131016 5184.56782256444  C 1171.06311528098 5184.61708650767  1170.97763594542 5184.66627530845  1170.8921134025 5184.7153889098  L 1171.39011305546 5185.58256613831  C 1171.47726957341 5185.53251418322  1171.56438148253 5185.48238458922  1171.65144867852 5185.43217741631  C 1174.449251407 5183.7898360326  1177.19924573899 5182.06737612363  1179.89802171315 5180.26693351989  L 1179.34305295983 5179.43506232624  Z M 1189.83767863507 5171.83377621367  C 1187.22297729503 5173.88567942911  1184.54803748455 5175.85963941476  1181.81638202279 5177.75305652184  L 1182.38605380941 5178.57492880847  C 1185.13394796007 5176.67025603179  1187.82478930573 5174.68456157867  1190.45503408535 5172.6204605519  L 1189.83767863507 5171.83377621367  Z M 1199.71605809445 5163.44721923926  C 1197.26705973757 5165.69430111385  1194.75200195709 5167.86830786994  1192.17419701212 5169.96637640286  L 1192.80544220639 5170.74195973475  C 1195.39857125543 5168.63141895462  1197.9285801311 5166.44448852647  1200.39213688417 5164.18404857505  L 1199.71605809445 5163.44721923926  Z M 1208.91957350978 5154.32515682836  C 1206.65081037442 5156.75408328644  1204.31055885574 5159.11523636153  1201.90190099801 5161.40550648262  L 1202.59097382135 5162.13019858561  C 1205.0139502658 5159.82631364943  1207.36811372062 5157.45112438612  1209.65036381994 5155.00775885192  L 1208.91957350978 5154.32515682836  Z M 1217.39361166363 5144.5217188602  C 1215.31854648102 5147.11807676909  1213.166988164 5149.65236519449  1210.9417702533 5152.1212465511  L 1211.68458178073 5152.79074713714  C 1213.92302779502 5150.30718918722  1216.08737633637 5147.75783534749  1218.17477701972 5145.14604304398  L 1217.39361166363 5144.5217188602  Z M 1119.76460526508 5203.86061952988  C 1116.50409520752 5204.50563431089  1113.22518482525 5205.05387487818  1109.93219234935 5205.50461921463  L 1110.06780765065 5206.49538078537  C 1113.38037575792 5206.04195693932  1116.67877805871 5205.49045728311  1119.95867065159 5204.84160812602  L 1119.76460526508 5203.86061952988  Z M 1219.60285076425 5141.69623613687  C 1219.48223361623 5141.85393431617  1219.36133738171 5142.01141883725  1219.24016262897 5142.16868895981  L 1220.03230505266 5142.77902524466  C 1220.15420014469 5142.62082020912  1220.2758150632 5142.46239950005  1220.39714923575 5142.30376386313  L 1219.60285076425 5141.69623613687  Z " fill-rule="nonzero" fill="#d9d9d9" stroke="none" />
  </g>
</svg>