<?xml version="1.0" encoding="utf-8"?>
<svg version="1.1" xmlns:xlink="http://www.w3.org/1999/xlink" width="70px" height="8px" viewBox="1162 5244  70 8" xmlns="http://www.w3.org/2000/svg">
  <g transform="matrix(0.743144825477365 -0.66913060635889 0.669130606358907 0.743144825477439 -3204.14177826795 2148.92529170599 )">
    <path d="M 1132.61161814566 5210.32568679528  C 1129.39710288283 5209.40627512327  1126.15614713255 5208.58195596778  1122.89298542298 5207.85380635763  L 1122.67519925701 5208.8298028668  C 1125.91915341857 5209.55366645933  1129.14103232902 5210.3731335262  1132.33662638544 5211.2871333782  L 1132.61161814566 5210.32568679528  Z M 1144.99749811213 5214.38841071963  C 1141.8629369927 5213.22524573293  1138.69472238977 5212.15486613908  1135.49699379017 5211.17867046146  L 1135.20501819766 5212.13509623138  C 1138.38392440012 5213.10554584827  1141.53349033052 5214.16962499818  1144.64960086779 5215.32594338966  L 1144.99749811213 5214.38841071963  Z M 1157.03542718805 5219.38881188279  C 1153.99927363931 5217.98874123239  1150.92245173185 5216.67860261563  1147.80898154184 5215.46010781733  L 1147.44453540786 5216.39133228836  C 1150.53967916068 5217.60265481037  1153.59839034919 5218.90508171908  1156.61667256017 5220.29691130556  L 1157.03542718805 5219.38881188279  Z M 1168.65453706357 5225.29745249886  C 1165.73466517906 5223.66871851945  1162.76734947873 5222.126533777  1159.75646696145 5220.67291324028  L 1159.32169581133 5221.57345421493  C 1162.31485574062 5223.01851848361  1165.26470529496 5224.55162565341  1168.16739029619 5226.17077261601  L 1168.65453706357 5225.29745249886  Z M 1179.75061663836 5232.14375109232  C 1177.13287001141 5230.37836864113  1174.46641759862 5228.68630553423  1171.75436656748 5227.06953350132  C 1171.59277193684 5226.97488778272  1171.43102092284 5226.8805093208  1171.26911418865 5226.78639850249  L 1170.76657755704 5227.65095441964  C 1170.92641572471 5227.74386285135  1171.08610122814 5227.83703367641  1171.24563342132 5227.9304665179  C 1173.94057547871 5229.53712286561  1176.59022308928 5231.21856466395  1179.19149120532 5232.97283417026  L 1179.75061663836 5232.14375109232  Z M 1190.2702967595 5239.84128825548  C 1187.64981470318 5237.76487307779  1184.96860808813 5235.76626673019  1182.2301800923 5233.84808052721  L 1181.65645950942 5234.66713162011  C 1184.37876863284 5236.57402703922  1187.04419319069 5238.56086923572  1189.64925062529 5240.62506226576  L 1190.2702967595 5239.84128825548  Z M 1200.1688349803 5248.32272028792  C 1197.71526695648 5246.05150251983  1195.19518744948 5243.85320874424  1192.61188911383 5241.73071118084  L 1191.97705995213 5242.50336371299  C 1194.54515253604 5244.61336787966  1197.05039840852 5246.79872210856  1199.48952429621 5249.05657108643  L 1200.1688349803 5248.32272028792  Z M 1209.3879577664 5257.53811627963  C 1207.11574813819 5255.08546677285  1204.77163166115 5252.70042711126  1202.35867108216 5250.38611351067  L 1201.66647063476 5251.10781881107  C 1204.06522810023 5253.40850995173  1206.39554669234 5255.77951084727  1208.65438169206 5258.21772362447  L 1209.3879577664 5257.53811627963  Z M 1217.87339135976 5267.43322441254  C 1215.79591681804 5264.8135821228  1213.64156338354 5262.25583750607  1211.41314586487 5259.76333242881  L 1210.66764917454 5260.42984175711  C 1212.88294983285 5262.90767550784  1215.0246223613 5265.45036478656  1217.08986851977 5268.0545873976  L 1217.87339135976 5267.43322441254  Z M 1119.95070401488 5207.22455771019  C 1116.67515873272 5206.55431200738  1113.38054161661 5205.98090612708  1110.07115730689 5205.50508926292  L 1109.92884269311 5206.49491073708  C 1113.2187473804 5206.96792685887  1116.49397179637 5207.53795757055  1119.75023663862 5208.2042580884  L 1119.95070401488 5207.22455771019  Z M 1220.39919508413 5270.69892976765  C 1220.17444661282 5270.40093124347  1219.94871669253 5270.10367419066  1219.72200900067 5269.80716345187  L 1218.92760486968 5270.41455301111  C 1219.15297811996 5270.70931843523  1219.37737935383 5271.00482578021  1219.60080491587 5271.30107023235  L 1220.39919508413 5270.69892976765  Z " fill-rule="nonzero" fill="#d9d9d9" stroke="none" />
  </g>
</svg>