<?xml version="1.0" encoding="utf-8"?>
<svg version="1.1" xmlns:xlink="http://www.w3.org/1999/xlink" width="72px" height="10px" viewBox="1118 4228  72 10" xmlns="http://www.w3.org/2000/svg">
  <g transform="matrix(0.945518575599312 -0.325568154457163 0.325568154457178 0.945518575599357 -1315.25843405884 606.325519731487 )">
    <path d="M 1144.61161814566 4228.32568679528  C 1141.39710288283 4227.40627512327  1138.15614713255 4226.58195596778  1134.89298542298 4225.85380635763  L 1134.67519925701 4226.8298028668  C 1137.91915341857 4227.55366645933  1141.14103232902 4228.3731335262  1144.33662638544 4229.2871333782  L 1144.61161814566 4228.32568679528  Z M 1156.99749811213 4232.38841071963  C 1153.8629369927 4231.22524573293  1150.69472238977 4230.15486613908  1147.49699379017 4229.17867046146  L 1147.20501819766 4230.13509623138  C 1150.38392440012 4231.10554584827  1153.53349033052 4232.16962499818  1156.64960086779 4233.32594338966  L 1156.99749811213 4232.38841071963  Z M 1169.03542718805 4237.38881188279  C 1165.99927363931 4235.98874123239  1162.92245173185 4234.67860261563  1159.80898154184 4233.46010781733  L 1159.44453540786 4234.39133228836  C 1162.53967916068 4235.60265481037  1165.59839034919 4236.90508171908  1168.61667256017 4238.29691130556  L 1169.03542718805 4237.38881188279  Z M 1180.65453706357 4243.29745249886  C 1177.73466517906 4241.66871851945  1174.76734947873 4240.126533777  1171.75646696145 4238.67291324028  L 1171.32169581133 4239.57345421493  C 1174.31485574062 4241.01851848361  1177.26470529496 4242.55162565341  1180.16739029619 4244.17077261601  L 1180.65453706357 4243.29745249886  Z M 1191.75061663836 4250.14375109232  C 1189.13287001141 4248.37836864113  1186.46641759862 4246.68630553423  1183.75436656748 4245.06953350132  C 1183.59277193684 4244.97488778272  1183.43102092284 4244.8805093208  1183.26911418865 4244.78639850249  L 1182.76657755704 4245.65095441964  C 1182.92641572471 4245.74386285135  1183.08610122814 4245.83703367641  1183.24563342132 4245.9304665179  C 1185.94057547871 4247.53712286561  1188.59022308928 4249.21856466395  1191.19149120532 4250.97283417026  L 1191.75061663836 4250.14375109232  Z M 1202.2702967595 4257.84128825548  C 1199.64981470318 4255.76487307779  1196.96860808813 4253.76626673019  1194.2301800923 4251.84808052721  L 1193.65645950942 4252.66713162011  C 1196.37876863284 4254.57402703922  1199.04419319069 4256.56086923572  1201.64925062529 4258.62506226576  L 1202.2702967595 4257.84128825548  Z M 1212.1688349803 4266.32272028792  C 1209.71526695648 4264.05150251983  1207.19518744948 4261.85320874424  1204.61188911383 4259.73071118084  L 1203.97705995213 4260.50336371299  C 1206.54515253604 4262.61336787966  1209.05039840852 4264.79872210856  1211.48952429621 4267.05657108643  L 1212.1688349803 4266.32272028792  Z M 1221.3879577664 4275.53811627963  C 1219.11574813819 4273.08546677285  1216.77163166115 4270.70042711126  1214.35867108216 4268.38611351067  L 1213.66647063476 4269.10781881107  C 1216.06522810023 4271.40850995173  1218.39554669234 4273.77951084727  1220.65438169206 4276.21772362447  L 1221.3879577664 4275.53811627963  Z M 1229.87339135976 4285.43322441254  C 1227.79591681804 4282.8135821228  1225.64156338354 4280.25583750607  1223.41314586487 4277.76333242881  L 1222.66764917454 4278.42984175711  C 1224.88294983285 4280.90767550784  1227.0246223613 4283.45036478656  1229.08986851977 4286.0545873976  L 1229.87339135976 4285.43322441254  Z M 1131.95070401488 4225.22455771019  C 1128.67515873272 4224.55431200738  1125.38054161661 4223.98090612708  1122.07115730689 4223.50508926292  L 1121.92884269311 4224.49491073708  C 1125.2187473804 4224.96792685887  1128.49397179637 4225.53795757055  1131.75023663862 4226.2042580884  L 1131.95070401488 4225.22455771019  Z M 1232.39919508413 4288.69892976765  C 1232.17444661282 4288.40093124347  1231.94871669253 4288.10367419066  1231.72200900067 4287.80716345187  L 1230.92760486968 4288.41455301111  C 1231.15297811996 4288.70931843523  1231.37737935383 4289.00482578021  1231.60080491587 4289.30107023235  L 1232.39919508413 4288.69892976765  Z " fill-rule="nonzero" fill="#d9d9d9" stroke="none" />
  </g>
</svg>