<?xml version="1.0" encoding="utf-8"?>
<svg version="1.1" xmlns:xlink="http://www.w3.org/1999/xlink" width="70px" height="10px" viewBox="1118 4210  70 10" xmlns="http://www.w3.org/2000/svg">
  <g transform="matrix(0.945518575599307 0.32556815445718 -0.325568154457154 0.945518575599359 1435.0868533709 -145.740878240425 )">
    <path d="M 1144.37022790764 4218.8581211665  C 1141.16904171055 4219.75219992964  1137.94206058803 4220.55120797063  1134.69353438184 4221.25409301873  L 1134.9050111767 4222.23147603743  C 1138.17284867862 4221.52441259575  1141.41901301926 4220.72065474529  1144.6392290931 4219.82126101212  L 1144.37022790764 4218.8581211665  Z M 1156.70733269305 4214.89421348059  C 1153.58446604121 4216.03205080553  1150.4285629291 4217.07708504495  1147.24377959074 4218.02793991868  L 1147.52986298605 4218.98614464155  C 1150.73357869219 4218.02963728467  1153.90824248974 4216.97839070033  1157.04967343739 4215.8337893502  L 1156.70733269305 4214.89421348059  Z M 1168.70271183541 4209.99241810955  C 1165.67669566922 4211.36726212437  1162.61059754464 4212.65212137936  1159.50845542514 4213.84530375166  L 1159.8674478158 4214.778644238  C 1162.98803103138 4213.57836883453  1166.07235598371 4212.28587156295  1169.11636070513 4210.90285460518  L 1168.70271183541 4209.99241810955  Z M 1180.28518533233 4204.18182207113  C 1177.37397588604 4205.78551451764  1174.41587682768 4207.30257449524  1171.41478388904 4208.73100407935  L 1171.84455503149 4209.63394193165  C 1174.86348836593 4208.19702085805  1177.83917223723 4206.67094251582  1180.76768775495 4205.05771670645  L 1180.28518533233 4204.18182207113  Z M 1191.34305295983 4197.43506232624  C 1188.66129900005 4199.22414898187  1185.92866987736 4200.93577596132  1183.1485513102 4202.56782256441  C 1183.06311528098 4202.61708650767  1182.97763594547 4202.66627530842  1182.8921134025 4202.7153889098  L 1183.39011305546 4203.58256613831  C 1183.47726957337 4203.53251418324  1183.56438148262 4203.48238458917  1183.65144867857 4203.43217741628  C 1186.44925140703 4201.78983603258  1189.199245739 4200.06737612363  1191.89802171315 4198.26693351989  L 1191.34305295983 4197.43506232624  Z M 1201.83767863507 4189.83377621367  C 1199.22297729503 4191.88567942911  1196.54803748455 4193.85963941476  1193.81638202279 4195.75305652184  L 1194.38605380941 4196.57492880847  C 1197.13394796007 4194.67025603178  1199.82478930573 4192.68456157868  1202.45503408535 4190.6204605519  L 1201.83767863507 4189.83377621367  Z M 1211.71605809445 4181.44721923926  C 1209.26705973757 4183.69430111385  1206.75200195709 4185.86830786994  1204.17419701212 4187.96637640286  L 1204.80544220639 4188.74195973475  C 1207.39857125543 4186.63141895462  1209.9285801311 4184.44448852647  1212.39213688417 4182.18404857505  L 1211.71605809445 4181.44721923926  Z M 1220.91957350978 4172.32515682836  C 1218.65081037441 4174.75408328644  1216.31055885574 4177.11523636153  1213.90190099801 4179.40550648262  L 1214.59097382135 4180.13019858561  C 1217.0139502658 4177.82631364943  1219.36811372062 4175.45112438611  1221.65036381994 4173.00775885192  L 1220.91957350978 4172.32515682836  Z M 1229.39361166363 4162.5217188602  C 1227.31854648102 4165.11807676909  1225.166988164 4167.65236519449  1222.9417702533 4170.1212465511  L 1223.68458178073 4170.79074713714  C 1225.92302779502 4168.30718918722  1228.08737633637 4165.75783534749  1230.17477701972 4163.14604304398  L 1229.39361166363 4162.5217188602  Z M 1131.76460526508 4221.86061952988  C 1128.50409520752 4222.50563431089  1125.22518482525 4223.05387487818  1121.93219234935 4223.50461921463  L 1122.06780765065 4224.49538078537  C 1125.38037575792 4224.04195693932  1128.67877805871 4223.49045728311  1131.95867065159 4222.84160812602  L 1131.76460526508 4221.86061952988  Z M 1231.60285076425 4159.69623613687  C 1231.48223361632 4159.85393431606  1231.36133738162 4160.01141883737  1231.24016262897 4160.16868895981  L 1232.03230505266 4160.77902524466  C 1232.15420014477 4160.620820209  1232.27581506311 4160.46239950016  1232.39714923575 4160.30376386313  L 1231.60285076425 4159.69623613687  Z " fill-rule="nonzero" fill="#d9d9d9" stroke="none" />
  </g>
</svg>