<?xml version="1.0" encoding="utf-8"?>
<svg version="1.1" xmlns:xlink="http://www.w3.org/1999/xlink" width="48px" height="12px" preserveAspectRatio="xMinYMid meet" viewBox="1897 3746  48 10" xmlns="http://www.w3.org/2000/svg">
  <path d="M 1900 3751.5  L 1934 3751.5  A 5 5 0 0 1 1939.5 3756.5 L 1939.5 4262  A 5 5 0 0 1 1934.5 4267.5 L 1911 4267.5  " stroke-width="3" stroke-dasharray="9,3" stroke="#ff0303" fill="none" />
  <path d="M 1901 3747.5  A 4 4 0 0 0 1897 3751.5 A 4 4 0 0 0 1901 3755.5 A 4 4 0 0 0 1905 3751.5 A 4 4 0 0 0 1901 3747.5 Z M 1913 4256  L 1897 4267.5  L 1913 4279  L 1913 4256  Z " fill-rule="nonzero" fill="#ff0303" stroke="none" />
</svg>