<?xml version="1.0" encoding="utf-8"?>
<svg version="1.1" xmlns:xlink="http://www.w3.org/1999/xlink" width="12px" height="202px" preserveAspectRatio="xMidYMin meet" viewBox="1133 563  10 202" xmlns="http://www.w3.org/2000/svg">
  <path d="M 1138.5 566  L 1138.5 754  A 5 5 0 0 1 1133.5 759.5 L 965 759.5  A 5 5 0 0 0 960.5 764.5 L 960.5 941  " stroke-width="3" stroke-dasharray="9,3" stroke="#ff0303" fill="none" />
  <path d="M 1138.5 563  A 4 4 0 0 0 1134.5 567 A 4 4 0 0 0 1138.5 571 A 4 4 0 0 0 1142.5 567 A 4 4 0 0 0 1138.5 563 Z M 949 939  L 960.5 955  L 972 939  L 949 939  Z " fill-rule="nonzero" fill="#ff0303" stroke="none" />
</svg>