<?xml version="1.0" encoding="utf-8"?>
<svg version="1.1" xmlns:xlink="http://www.w3.org/1999/xlink" width="22px" height="22px" preserveAspectRatio="xMinYMid meet" viewBox="1811 4899  22 20" xmlns="http://www.w3.org/2000/svg">
  <path d="M 1821 4909.5  L 1971 4909.5  A 5 5 0 0 1 1976.5 4914.5 L 1976.5 5885  A 5 5 0 0 1 1971.5 5890.5 L 1921 5890.5  A 5 5 0 0 0 1916.5 5895.5 " stroke-width="3" stroke-dasharray="9,3" stroke="#ff0303" fill="none" />
  <path d="M 1822 4905.5  A 4 4 0 0 0 1818 4909.5 A 4 4 0 0 0 1822 4913.5 A 4 4 0 0 0 1826 4909.5 A 4 4 0 0 0 1822 4905.5 Z M 1905 5884  L 1916.5 5900  L 1928 5884  L 1905 5884  Z " fill-rule="nonzero" fill="#ff0303" stroke="none" />
</svg>