<?xml version="1.0" encoding="utf-8"?>
<svg version="1.1" xmlns:xlink="http://www.w3.org/1999/xlink" width="71px" height="32px" xmlns="http://www.w3.org/2000/svg">
  <defs>
    <mask fill="white" id="clip8">
      <path d="M 0 30  L 0 2  C 0 0.880000000000109  0.961230769230888 0  2.18461538461538 0  L 39.7202797202796 0  L 68.8153846153846 0  C 70.0387692307691 0  71 0.880000000000109  71 2  L 71 30  C 71 31.1199999999999  70.0387692307691 32  68.8153846153846 32  L 2.18461538461538 32  C 0.961230769230888 32  0 31.1199999999999  0 30  Z " fill-rule="evenodd" />
    </mask>
  </defs>
  <g transform="matrix(1 0 0 1 -1826 -1049 )">
    <path d="M 0 30  L 0 2  C 0 0.880000000000109  0.961230769230888 0  2.18461538461538 0  L 39.7202797202796 0  L 68.8153846153846 0  C 70.0387692307691 0  71 0.880000000000109  71 2  L 71 30  C 71 31.1199999999999  70.0387692307691 32  68.8153846153846 32  L 2.18461538461538 32  C 0.961230769230888 32  0 31.1199999999999  0 30  Z " fill-rule="nonzero" fill="#ffffff" stroke="none" transform="matrix(1 0 0 1 1826 1049 )" />
    <path d="M 0 30  L 0 2  C 0 0.880000000000109  0.961230769230888 0  2.18461538461538 0  L 39.7202797202796 0  L 68.8153846153846 0  C 70.0387692307691 0  71 0.880000000000109  71 2  L 71 30  C 71 31.1199999999999  70.0387692307691 32  68.8153846153846 32  L 2.18461538461538 32  C 0.961230769230888 32  0 31.1199999999999  0 30  Z " stroke-width="2" stroke="#d9d9d9" fill="none" transform="matrix(1 0 0 1 1826 1049 )" mask="url(#clip8)" />
  </g>
</svg>